<svg width="150.9" height="72.001" viewBox="0 0 150.9 72.001" xmlns="http://www.w3.org/2000/svg"><g id="svgGroup" stroke-linecap="round" fill-rule="evenodd" font-size="9pt" stroke="#000" stroke-width="0.1mm" fill="#fff" style="stroke:#000;stroke-width:0.1mm;fill:#fff"><path d="M 150.9 72.001 L 91.1 72.001 Q 87.8 72.001 85.05 70.401 Q 82.3 68.801 80.7 66.051 Q 79.1 63.301 79.1 60.001 L 79.1 12.001 Q 79.1 8.701 80.7 5.951 Q 82.3 3.201 85.05 1.601 Q 87.8 0.001 91.1 0.001 L 150.9 0.001 L 150.9 8.101 L 91.1 8.101 A 3.747 3.747 0 0 0 88.386 9.215 A 4.641 4.641 0 0 0 88.35 9.251 A 3.848 3.848 0 0 0 87.392 10.769 A 3.889 3.889 0 0 0 87.2 12.001 L 87.2 60.001 A 3.747 3.747 0 0 0 88.314 62.714 A 4.641 4.641 0 0 0 88.35 62.751 A 3.848 3.848 0 0 0 89.869 63.709 A 3.889 3.889 0 0 0 91.1 63.901 L 150.9 63.901 L 150.9 72.001 Z M 8.1 72.001 L 0 72.001 L 0 0.101 L 60 0.101 Q 63.3 0.101 66.05 1.751 Q 68.8 3.401 70.4 6.101 Q 72 8.801 72 12.101 L 72 33.201 Q 72 36.501 70.4 39.201 Q 68.8 41.901 66.05 43.551 Q 63.3 45.201 60 45.201 L 8.1 45.201 L 8.1 72.001 Z M 12 37.001 L 60 37.001 Q 61.6 37.001 62.75 35.901 A 3.581 3.581 0 0 0 63.899 33.3 A 4.389 4.389 0 0 0 63.9 33.201 L 63.9 12.101 A 3.747 3.747 0 0 0 62.786 9.387 A 4.641 4.641 0 0 0 62.75 9.351 A 3.848 3.848 0 0 0 61.231 8.392 A 3.889 3.889 0 0 0 60 8.201 L 12 8.201 A 3.747 3.747 0 0 0 9.286 9.315 A 4.641 4.641 0 0 0 9.25 9.351 A 3.848 3.848 0 0 0 8.292 10.869 A 3.889 3.889 0 0 0 8.1 12.101 L 8.1 33.201 A 3.583 3.583 0 0 0 9.179 35.831 A 4.319 4.319 0 0 0 9.25 35.901 Q 10.4 37.001 12 37.001 Z" vector-effect="non-scaling-stroke"/></g></svg>